<?xml version="1.0" standalone="no"?><!DOCTYPE svg PUBLIC "-//W3C//DTD SVG 1.1//EN" "http://www.w3.org/Graphics/SVG/1.1/DTD/svg11.dtd"><svg t="1780655382840" class="icon" viewBox="0 0 1024 1024" version="1.1" xmlns="http://www.w3.org/2000/svg" p-id="5064" xmlns:xlink="http://www.w3.org/1999/xlink" width="200" height="200"><path d="M311.296 428.544V40.96A512.682667 512.682667 0 0 0 36.864 321.024l274.432 274.432v-166.912z" fill="#37C15C" p-id="5065"></path><path d="M428.544 311.296L702.976 36.864a513.109333 513.109333 0 0 0-391.68 4.096v387.584l117.248-117.248z" fill="#A9E247" p-id="5066"></path><path d="M983.04 311.296h-387.584l117.248 117.248 274.432 274.432a513.109333 513.109333 0 0 0-4.096-391.68z" fill="#FF7D12" p-id="5067"></path><path d="M712.704 595.456v387.584a512.682667 512.682667 0 0 0 274.432-280.064l-274.432-274.432v166.912z" fill="#F93B21" p-id="5068"></path><path d="M595.456 712.704l-274.432 274.432a513.109333 513.109333 0 0 0 391.68-4.096v-387.584l-117.248 117.248z" fill="#846FEF" p-id="5069"></path><path d="M428.544 712.704H40.96a512.682667 512.682667 0 0 0 280.064 274.432l274.432-274.432h-166.912z" fill="#1E95FF" p-id="5070"></path><path d="M311.296 595.456L36.864 321.024a513.109333 513.109333 0 0 0 4.096 391.68h387.584l-117.248-117.248z" fill="#14EFEF" p-id="5071"></path><path d="M595.456 311.296h387.584A512.682667 512.682667 0 0 0 702.976 36.864l-274.432 274.432h166.912z" fill="#FFC931" p-id="5072"></path></svg>