<?xml version="1.0" standalone="no"?><!DOCTYPE svg PUBLIC "-//W3C//DTD SVG 1.1//EN" "http://www.w3.org/Graphics/SVG/1.1/DTD/svg11.dtd"><svg t="1780655961461" class="icon" viewBox="0 0 1026 1024" version="1.1" xmlns="http://www.w3.org/2000/svg" p-id="21392" xmlns:xlink="http://www.w3.org/1999/xlink" width="200.390625" height="200"><path d="M933.875 905.75H455.75l241.875-241.875L939.5 422c7.5-7.5 13.125-15 16.875-24.375 1.875-1.875 1.875-5.625 1.875-7.5s1.875-5.625 1.875-7.5c3.75-18.75 0-37.5-11.25-54.375-1.875-3.75-5.625-7.5-9.375-11.25L707 84.5c-11.25-11.25-24.375-16.875-39.375-20.625C656.375 62 647 62 635.75 63.875c-13.125 3.75-24.375 9.375-35.625 18.75L84.5 602c-28.125 30-28.125 76.875 0 105l196.875 198.75h-78.75c-16.875 0-28.125 13.125-28.125 28.125S185.75 962 202.625 962H935.75c15 0 28.125-13.125 28.125-28.125-1.875-15-15-28.125-30-28.125z m-538.125-510l232.5 232.5L369.5 887 137 654.5l258.75-258.75z" fill="#0e932e" p-id="21393"></path></svg>