<?xml version="1.0" standalone="no"?><!DOCTYPE svg PUBLIC "-//W3C//DTD SVG 1.1//EN" "http://www.w3.org/Graphics/SVG/1.1/DTD/svg11.dtd"><svg t="1782381102937" class="icon" viewBox="0 0 1024 1024" version="1.1" xmlns="http://www.w3.org/2000/svg" p-id="4725" xmlns:xlink="http://www.w3.org/1999/xlink" width="200" height="200"><path d="M512 512m-512 0a512 512 0 1 0 1024 0 512 512 0 1 0-1024 0Z" fill="#11C879" p-id="4726"></path><path d="M510.663111 756.622222h256a28.444444 28.444444 0 1 1 0 56.888889h-256a28.444444 28.444444 0 0 1 0-56.888889z m151.153778-327.566222l-85.902222-82.972444a62540.885333 62540.885333 0 0 0-230.968889 231.822222l85.731555 82.830222c90.225778-89.884444 167.253333-167.111111 231.139556-231.68z m39.964444-40.504889l23.182223-23.608889c40.021333-40.817778 40.049778-44.515556-10.097778-91.591111-27.022222-25.344-46.193778-20.764444-75.719111 8.96-1.763556 1.763556-13.454222 14.620444-22.556445 24.007111l85.191111 82.232889zM385.820444 696.519111l-73.671111-71.139555a14815.658667 14815.658667 0 0 0-40.561777 116.167111c27.420444-10.325333 65.507556-25.344 114.232888-45.027556z m-110.592-129.137778C470.812444 370.318222 563.712 277.333333 571.733333 270.961778c2.048-1.649778 21.532444-23.182222 27.050667-28.728889 48.526222-48.839111 100.693333-61.326222 155.022222-10.325333 74.012444 69.461333 73.585778 109.852444 11.776 172.913777-80.782222 82.346667-190.321778 192.369778-328.704 330.040889l-4.067555 4.039111-5.319111 2.161778a5973.134222 5973.134222 0 0 1-142.677334 56.32c-16.241778 6.058667-28.529778 10.382222-37.034666 12.999111-4.977778 1.536-8.903111 2.56-12.259556 3.185778-3.185778 0.568889-6.058667 0.853333-9.500444 0.568889-13.397333-1.080889-26.908444-9.159111-26.908445-28.814222 0-9.614222 15.445333-54.641778 69.489778-207.36l2.104889-5.973334 4.522666-4.551111z" fill="#FFFFFF" p-id="4727"></path></svg>