<?xml version="1.0" standalone="no"?><!DOCTYPE svg PUBLIC "-//W3C//DTD SVG 1.1//EN" "http://www.w3.org/Graphics/SVG/1.1/DTD/svg11.dtd"><svg t="1780656138051" class="icon" viewBox="0 0 1024 1024" version="1.1" xmlns="http://www.w3.org/2000/svg" p-id="33332" xmlns:xlink="http://www.w3.org/1999/xlink" width="200" height="200"><path d="M1002.44672 454.4L575.37472 12.8a36.544 36.544 0 0 0-46.464-7.424 58.112 58.112 0 0 0-24.96 50.24v209.28C244.43072 325.696 40.20672 611.84 0.46272 948.48a40 40 0 0 0 16 38.4 24.768 24.768 0 0 0 33.856-7.68c99.008-129.344 230.4-192 453.632-205.44v194.368a58.112 58.112 0 0 0 24.96 50.24 36.544 36.544 0 0 0 46.464-7.168l427.136-441.6a86.976 86.976 0 0 0 0-115.648z" fill="#2D73F9" p-id="33333"></path></svg>