<?xml version="1.0" standalone="no"?><!DOCTYPE svg PUBLIC "-//W3C//DTD SVG 1.1//EN" "http://www.w3.org/Graphics/SVG/1.1/DTD/svg11.dtd"><svg t="1780656217528" class="icon" viewBox="0 0 1024 1024" version="1.1" xmlns="http://www.w3.org/2000/svg" p-id="40254" xmlns:xlink="http://www.w3.org/1999/xlink" width="200" height="200"><path d="M22.016 454.4L449.088 12.8a36.544 36.544 0 0 1 46.464-7.424 58.112 58.112 0 0 1 24.96 50.24v209.28c259.52 60.8 463.744 346.944 503.488 683.584a40 40 0 0 1-16 38.4 24.768 24.768 0 0 1-33.6-7.104c-99.008-129.344-230.4-192-453.632-205.44v194.368a58.112 58.112 0 0 1-24.96 50.24 36.544 36.544 0 0 1-46.464-7.168L22.016 569.6a86.976 86.976 0 0 1 0-115.648z" fill="#2D73F9" p-id="40255"></path></svg>